<svg xmlns="http://www.w3.org/2000/svg" viewBox="0 0 284.99 60.0" width="284.99" height="60.0" fill="none"><g transform="translate(0 55.000)"><g transform="translate(-11.8421 -64.4737) scale(0.789474)"><rect x="15.0" y="12.0" width="14.0" height="76.0" rx="7.0" fill="#127A4A"/><path d="M72.0 19.0L45.0 50.0L72.0 81.0" fill="none" stroke="#127A4A" stroke-width="14.0" stroke-linecap="round" stroke-linejoin="round"/></g><path transform="translate(73.365 0)" d="M4.16 0.00V-50.00H13.02V-25.87Q14.97 -28.15 16.93 -30.40Q18.89 -32.65 20.84 -34.93L34.13 -50.00H45.07L25.84 -28.36L45.40 0.00H35.07L19.87 -22.38L13.02 -14.63V0.00Z M64.30 0.81Q59.00 0.81 55.11 -1.58Q51.22 -3.96 49.12 -8.14Q47.02 -12.32 47.02 -17.68Q47.02 -23.09 49.19 -27.27Q51.35 -31.44 55.18 -33.84Q59.00 -36.24 63.97 -36.24Q69.07 -36.24 72.90 -33.89Q76.72 -31.54 78.83 -27.40Q80.95 -23.26 80.95 -17.82V-15.50H55.31Q55.48 -11.17 57.86 -8.52Q60.24 -5.87 64.51 -5.87Q67.69 -5.87 69.77 -7.27Q71.86 -8.66 72.59 -10.94H80.51Q79.84 -7.48 77.58 -4.83Q75.31 -2.18 71.89 -0.69Q68.47 0.81 64.30 0.81ZM55.38 -21.34H72.83Q72.43 -25.13 70.09 -27.33Q67.76 -29.53 64.10 -29.53Q60.41 -29.53 58.11 -27.33Q55.81 -25.13 55.38 -21.34Z M85.66 0.00V-35.44H93.84V-29.30Q95.46 -32.72 98.31 -34.43Q101.16 -36.14 104.52 -36.14Q108.11 -36.14 110.86 -34.31Q113.61 -32.48 114.72 -29.43Q116.13 -32.48 119.11 -34.31Q122.10 -36.14 125.99 -36.14Q131.03 -36.14 134.45 -32.89Q137.87 -29.63 137.87 -23.39V0.00H129.38V-22.18Q129.38 -25.70 127.45 -27.33Q125.52 -28.96 122.80 -28.96Q119.58 -28.96 117.72 -26.95Q115.86 -24.93 115.86 -21.74V0.00H107.64V-22.58Q107.64 -25.47 105.82 -27.21Q104.01 -28.96 101.19 -28.96Q98.34 -28.96 96.23 -26.96Q94.11 -24.97 94.11 -21.14V0.00Z M144.32 0.00V-35.44H152.78V0.00ZM148.55 -40.70Q146.37 -40.70 144.93 -42.10Q143.48 -43.49 143.48 -45.54Q143.48 -47.58 144.93 -48.96Q146.37 -50.34 148.55 -50.34Q150.70 -50.34 152.14 -48.96Q153.59 -47.58 153.59 -45.54Q153.59 -43.49 152.14 -42.10Q150.70 -40.70 148.55 -40.70Z M173.16 0.84Q166.68 0.84 162.34 -2.20Q157.99 -5.23 157.59 -10.94H165.94Q166.21 -8.36 168.02 -6.93Q169.84 -5.50 173.02 -5.50Q176.08 -5.50 177.84 -6.71Q179.60 -7.92 179.60 -9.80Q179.60 -11.41 178.29 -12.38Q176.98 -13.36 174.77 -13.83L168.73 -15.07Q158.39 -17.21 158.39 -25.30Q158.39 -30.20 162.29 -33.20Q166.18 -36.21 172.66 -36.21Q179.10 -36.21 183.14 -33.04Q187.19 -29.87 187.32 -24.40H179.37Q179.30 -26.78 177.52 -28.32Q175.74 -29.87 172.86 -29.87Q170.07 -29.87 168.46 -28.62Q166.85 -27.38 166.85 -25.57Q166.85 -23.99 168.09 -23.00Q169.33 -22.01 171.55 -21.51L177.92 -20.20Q183.19 -19.09 185.69 -16.71Q188.19 -14.33 188.19 -10.44Q188.19 -6.98 186.26 -4.45Q184.33 -1.91 180.94 -0.54Q177.55 0.84 173.16 0.84Z M211.62 -35.44V-28.62H204.41V-10.17Q204.41 -8.26 205.18 -7.53Q205.95 -6.81 208.00 -6.81H211.62V0.00H206.52Q201.12 0.00 198.52 -2.18Q195.92 -4.36 195.92 -8.93V-28.62H189.74V-35.44H195.92V-45.10H204.41V-35.44Z" fill="#1C1C1A"/></g></svg>